<?xml version="1.0" encoding="UTF-8"?>
<svg id="Layer_1" xmlns="http://www.w3.org/2000/svg" viewBox="0 0 64 64">
  <defs>
    <style>
      .cls-1 {
        fill: #231f20;
      }
    </style>
  </defs>
  <path class="cls-1" d="M10.67,23.17s-.02-.05-.03-.07c-.01-.02-.03-.05-.04-.07-.02-.02-.04-.04-.06-.06-.01,0-.02-.02-.03-.03,0,0-.02,0-.03-.01-.03-.01-.05-.02-.08-.03-.03,0-.05-.01-.08-.02-.01,0-.02,0-.03,0-.02,0-.03,0-.04,0-.03,0-.06,0-.08.02-.03,0-.05.02-.07.03-.02.01-.05.03-.07.04-.02.02-.04.04-.06.06,0,.01-.02.02-.03.03l-1.95,3.08-1.94,2.16-1.92,1.57-1.91,1.01-1.91.7s0,0,0,0c0,0-.01,0-.02,0-.02.01-.04.03-.07.05-.02.01-.04.02-.06.04,0,0,0,0,0,0-.02.02-.03.04-.04.06-.02.02-.03.04-.04.07,0,0,0,.01,0,.02,0,0,0,0,0,0,0,.02,0,.04,0,.06,0,.03-.01.05-.02.08,0,0,0,0,0,.01s0,0,0,.01c0,.03,0,.05.02.08,0,.02,0,.04,0,.06,0,0,0,0,0,0,0,0,0,.01,0,.02.01.02.03.04.05.07.02.02.03.05.05.07.01.01.03.02.04.03.01.01.03.02.04.03.02.01.04.03.06.04,0,0,0,0,0,0l1.87.68s.07.04.1.05l1.85.98,1.92,1.57,1.94,2.16,1.95,3.08s.02.01.02.02c.03.04.06.07.11.1.02.01.03.02.04.03.06.03.12.05.19.05h0s0,0,0,0c0,0,0,0,0,0,.07,0,.14-.02.2-.06,0,0,.02,0,.02,0,.01,0,.02-.02.03-.03.02-.02.04-.04.06-.06.02-.02.03-.04.04-.07.01-.02.02-.05.03-.07,0-.03.01-.06.02-.08,0-.02,0-.03,0-.04v-17.41s0-.03,0-.04c0-.03,0-.06-.02-.08ZM1.94,32.1l-.28-.1.28-.1v.2ZM2.79,31.55l1.12-.6v2.1l-1.12-.6v-.91ZM4.77,30.44l1.13-.92v4.96l-1.13-.92v-3.11ZM6.74,28.78l1.13-1.26v8.96l-1.13-1.26v-6.44ZM8.73,26.53l1.12-1.76v14.47l-1.12-1.76v-10.94ZM14.65,28.62v6.76c0,.24-.19.43-.43.43s-.43-.19-.43-.43v-6.76c0-.24.19-.43.43-.43s.43.19.43.43ZM20.54,32c0,.24-.19.43-.43.43s-.43-.19-.43-.43.19-.43.43-.43.43.19.43.43ZM16.62,30.24v3.52c0,.24-.19.43-.43.43s-.43-.19-.43-.43v-3.52c0-.24.19-.43.43-.43s.43.19.43.43ZM18.6,31.29v1.44c0,.24-.19.43-.43.43s-.43-.19-.43-.43v-1.44c0-.24.19-.43.43-.43s.43.19.43.43ZM12.66,26.4v11.19c0,.24-.19.43-.43.43s-.43-.19-.43-.43v-11.19c0-.24.19-.43.43-.43s.43.19.43.43ZM29.39,28.28c-.06-.13-.14-.24-.25-.35-.11-.1-.26-.15-.45-.15h-.12c-.18,0-.33.05-.44.15-.12.1-.2.22-.26.35l-3.09,7.3c-.04.1-.06.18-.06.24,0,.15.05.28.15.39.1.11.23.16.4.16.25,0,.42-.11.52-.34l.79-1.89h4.12l.79,1.89c.1.23.27.34.52.34.17,0,.3-.05.4-.16.1-.11.15-.23.15-.39,0-.06-.02-.15-.06-.24l-3.09-7.3ZM26.99,33.13l1.64-3.94,1.64,3.94h-3.27ZM41.82,30.22c.1.11.16.23.16.39,0,.07-.01.13-.04.21l-1.72,5.04c-.05.14-.14.26-.27.36-.13.1-.27.15-.44.15s-.31-.05-.44-.15-.22-.22-.28-.37l-1.29-4.01-1.29,4.01c-.06.15-.15.27-.28.37-.13.1-.28.15-.44.15s-.31-.05-.44-.15c-.13-.1-.22-.22-.27-.36l-1.72-5.04c-.02-.07-.04-.14-.04-.21,0-.15.05-.28.16-.39.11-.1.23-.16.39-.16.11,0,.22.03.31.08.09.06.16.14.19.24l1.42,4.67,1.41-4.56c.04-.13.12-.23.22-.32.11-.08.23-.12.37-.12s.26.04.38.12c.11.08.19.19.22.32l1.41,4.56,1.42-4.67c.03-.1.1-.19.19-.24.1-.06.2-.08.3-.08.15,0,.28.05.39.16ZM47.28,30.43c-.43-.29-.95-.43-1.58-.43-.67,0-1.22.15-1.65.46-.43.31-.74.71-.95,1.19-.2.49-.3,1.01-.3,1.56,0,1.02.28,1.81.83,2.37.55.56,1.32.84,2.31.84.53,0,.94-.05,1.25-.15.31-.1.6-.23.87-.38.09-.05.16-.11.22-.19s.09-.16.09-.26c0-.14-.05-.25-.15-.34-.1-.09-.21-.13-.34-.13-.08,0-.15.02-.22.05-.23.11-.47.2-.72.27-.25.07-.56.1-.92.1-.65,0-1.16-.16-1.5-.49-.35-.33-.55-.76-.62-1.3h4.11c.17,0,.3-.05.41-.16.1-.1.15-.23.15-.39,0-.54-.11-1.04-.33-1.5-.22-.46-.55-.83-.98-1.12ZM43.93,32.7c.02-.42.13-.76.32-1.02.19-.26.41-.45.68-.57.27-.12.53-.18.79-.18s.52.06.79.18c.27.12.5.31.69.57s.3.6.32,1.02h-3.58ZM54.13,33.69c.17.23.26.55.26.95,0,.49-.2.92-.59,1.27-.39.35-.98.53-1.75.53-.44,0-.85-.05-1.21-.15-.36-.1-.69-.23-1-.4-.14-.1-.21-.23-.21-.4,0-.12.04-.23.13-.33.09-.1.2-.15.34-.15.07,0,.15.02.22.05.22.1.46.18.72.25.26.07.57.11.93.11.47,0,.81-.07,1.02-.22.21-.15.32-.36.32-.64,0-.18-.09-.32-.26-.41-.17-.1-.4-.18-.68-.25-.28-.07-.57-.14-.88-.22-.31-.08-.6-.18-.88-.32-.28-.13-.51-.31-.68-.55-.17-.23-.26-.53-.26-.89,0-.55.2-1.01.59-1.37.4-.36.99-.55,1.77-.55.33,0,.64.03.94.08.3.06.57.13.82.22.11.03.2.1.26.19s.09.18.09.27c0,.13-.05.24-.14.34-.09.1-.21.15-.35.15-.03,0-.06,0-.08,0-.02,0-.05-.01-.07-.02-.19-.06-.41-.12-.64-.16-.23-.04-.48-.06-.75-.06-.44,0-.79.08-1.03.24-.24.16-.36.36-.36.61,0,.21.09.37.26.48.17.11.4.2.68.27.28.07.57.14.89.21.31.07.61.18.88.31.28.13.51.32.68.55ZM56.81,30.22c.1.11.16.24.16.4v5.2c0,.15-.05.28-.16.39-.11.11-.24.16-.4.16s-.28-.05-.39-.16c-.11-.11-.16-.23-.16-.39v-5.2c0-.16.05-.3.16-.4.1-.1.23-.16.39-.16.16,0,.3.05.4.16ZM56.9,27.76c.12.12.18.27.18.44v.05c0,.17-.06.31-.18.44-.12.12-.27.18-.44.18h-.07c-.17,0-.32-.06-.44-.18-.12-.12-.18-.27-.18-.44v-.05c0-.17.06-.32.18-.44.12-.12.27-.18.44-.18h.07c.17,0,.32.06.44.18ZM63.83,35.09c.09.11.13.21.13.33,0,.18-.08.32-.24.42-.2.13-.46.26-.78.39-.32.13-.72.19-1.19.19-.57,0-1.11-.13-1.6-.38s-.89-.62-1.19-1.1c-.3-.48-.45-1.06-.45-1.73s.15-1.26.45-1.73c.3-.48.69-.84,1.19-1.1.49-.25,1.03-.38,1.6-.38.48,0,.87.06,1.19.19.32.13.58.26.78.39.16.11.24.25.24.42,0,.11-.04.22-.13.33s-.2.16-.33.16c-.09,0-.18-.02-.27-.07-.21-.11-.42-.21-.62-.28-.2-.07-.46-.11-.78-.11-.7,0-1.25.2-1.64.61-.39.4-.59.93-.59,1.58s.2,1.17.59,1.58c.39.4.94.61,1.64.61.32,0,.57-.04.78-.12.2-.08.41-.17.62-.27.09-.05.18-.07.27-.07.13,0,.24.05.33.16Z"/>
</svg>