<?xml version="1.0" encoding="UTF-8"?>
<svg id="Layer_1" xmlns="http://www.w3.org/2000/svg" viewBox="0 0 64 64">
  <defs>
    <style>
      .cls-1 {
        fill: #231f20;
      }
    </style>
  </defs>
  <path class="cls-1" d="M7.63,25.93c-.09-.21-.23-.4-.42-.56-.18-.17-.43-.25-.73-.25h-.2c-.29,0-.53.08-.72.25-.19.16-.33.35-.42.56L.1,37.83c-.07.16-.1.29-.1.4,0,.25.08.46.24.63.16.17.38.26.65.26.41,0,.69-.18.85-.55l1.28-3.08h6.72l1.28,3.08c.16.37.44.55.85.55.28,0,.49-.09.65-.26.16-.17.24-.38.24-.63,0-.11-.03-.24-.1-.4l-5.04-11.9ZM3.72,33.84l2.67-6.42,2.67,6.42H3.72ZM27.89,29.09c.17.17.26.38.26.63,0,.11-.02.22-.06.34l-2.81,8.22c-.08.22-.22.42-.43.58s-.45.25-.71.25-.5-.08-.71-.25c-.21-.16-.36-.37-.45-.6l-2.1-6.54-2.1,6.54c-.09.24-.24.44-.45.6-.21.16-.45.25-.71.25s-.5-.08-.71-.25c-.21-.16-.36-.36-.43-.58l-2.81-8.22c-.04-.12-.06-.23-.06-.34,0-.25.09-.46.26-.63.17-.17.38-.26.63-.26.18,0,.35.05.5.14.15.09.25.22.31.39l2.31,7.61,2.29-7.43c.07-.21.19-.38.37-.51.18-.13.38-.2.6-.2s.43.07.61.2c.18.13.3.3.36.51l2.29,7.43,2.31-7.61c.05-.17.16-.3.32-.39.16-.09.32-.14.49-.14.25,0,.46.09.63.26ZM36.8,29.44c-.7-.47-1.55-.7-2.57-.7-1.09,0-1.99.25-2.69.75-.7.5-1.21,1.15-1.54,1.95-.33.8-.49,1.64-.49,2.54,0,1.66.45,2.95,1.35,3.86.9.92,2.16,1.37,3.77,1.37.86,0,1.54-.08,2.05-.25.51-.16.98-.37,1.41-.62.14-.08.27-.18.37-.31.1-.13.15-.27.15-.43,0-.22-.08-.41-.24-.55-.16-.14-.34-.22-.55-.22-.13,0-.25.03-.36.08-.37.18-.76.33-1.17.44-.41.11-.91.17-1.5.17-1.07,0-1.88-.27-2.45-.8-.57-.53-.9-1.24-1.01-2.12h6.7c.28,0,.5-.09.66-.26.16-.17.25-.38.25-.63,0-.88-.18-1.7-.54-2.45-.36-.75-.89-1.36-1.59-1.83ZM31.33,33.15c.04-.68.21-1.24.51-1.66.3-.42.67-.73,1.11-.93.43-.2.86-.3,1.28-.3s.85.1,1.28.3c.43.2.81.51,1.12.93.31.42.48.98.52,1.66h-5.83ZM47.96,34.75c.28.38.42.9.42,1.54,0,.8-.32,1.49-.96,2.07-.64.57-1.59.86-2.86.86-.72,0-1.38-.08-1.97-.24-.59-.16-1.13-.37-1.63-.65-.22-.16-.34-.37-.34-.65,0-.2.07-.38.22-.54.14-.16.33-.25.55-.25.12,0,.24.03.36.08.36.16.75.3,1.18.41.43.12.93.18,1.51.18.76,0,1.32-.12,1.67-.37.35-.24.52-.59.52-1.04,0-.29-.14-.51-.42-.67-.28-.16-.65-.29-1.11-.4-.45-.11-.93-.23-1.43-.36-.5-.13-.98-.3-1.43-.51-.46-.22-.82-.51-1.11-.89-.28-.38-.42-.86-.42-1.45,0-.9.32-1.64.97-2.23.65-.59,1.61-.89,2.89-.89.54,0,1.05.05,1.53.14.48.09.93.21,1.33.36.18.05.33.16.42.31.1.15.15.3.15.44,0,.21-.08.39-.23.55-.15.16-.34.24-.56.24-.05,0-.1,0-.14-.01s-.08-.02-.12-.03c-.32-.11-.66-.19-1.04-.26-.38-.07-.78-.1-1.22-.1-.73,0-1.28.13-1.68.4-.4.26-.59.59-.59.99,0,.34.14.61.42.79.28.18.65.33,1.11.44.46.11.94.23,1.44.35.51.12.99.29,1.44.5.45.22.82.52,1.11.9ZM52.34,29.09c.17.17.26.39.26.65v8.48c0,.25-.09.46-.26.63-.17.17-.39.26-.65.26s-.46-.09-.63-.26c-.17-.17-.26-.38-.26-.63v-8.48c0-.26.09-.48.26-.65.17-.17.38-.26.63-.26.26,0,.48.09.65.26ZM52.48,25.08c.2.2.3.43.3.71v.08c0,.28-.1.51-.3.71-.2.2-.43.3-.71.3h-.12c-.28,0-.51-.1-.71-.3-.2-.2-.3-.43-.3-.71v-.08c0-.28.1-.51.3-.71.2-.2.43-.3.71-.3h.12c.28,0,.51.1.71.3ZM63.78,37.04c.14.17.22.35.22.53,0,.29-.13.52-.4.69-.33.21-.75.42-1.27.63-.52.21-1.17.32-1.95.32-.94,0-1.81-.21-2.61-.62s-1.45-1.02-1.94-1.8c-.49-.78-.73-1.72-.73-2.82s.24-2.05.73-2.83c.49-.78,1.13-1.37,1.94-1.79.8-.41,1.67-.62,2.61-.62.78,0,1.43.1,1.95.31.52.2.95.42,1.27.64.26.17.4.4.4.69,0,.18-.07.36-.22.53-.14.17-.32.26-.53.26-.14,0-.29-.04-.43-.12-.34-.18-.68-.34-1.01-.45-.33-.12-.75-.18-1.27-.18-1.15,0-2.04.33-2.68.99-.64.66-.96,1.52-.96,2.57s.32,1.91.96,2.57c.64.66,1.53.99,2.68.99.51,0,.94-.06,1.27-.19.33-.13.66-.27,1.01-.45.14-.08.29-.12.43-.12.21,0,.39.09.53.26Z"/>
</svg>