<?xml version="1.0" encoding="UTF-8"?>
<svg id="Layer_1" xmlns="http://www.w3.org/2000/svg" viewBox="0 0 64 64">
  <defs>
    <style>
      .cls-1 {
        fill: #f00c9d;
      }

      .cls-2 {
        fill: #616161;
      }
    </style>
  </defs>
  <g>
    <path class="cls-1" d="M6.32,35.81c-.24,0-.43-.19-.43-.43v-6.76c0-.24.19-.43.43-.43s.43.19.43.43v6.76c0,.24-.19.43-.43.43Z"/>
    <circle class="cls-1" cx=".43" cy="32" r=".43"/>
    <path class="cls-1" d="M10.27,41.13c-.24,0-.43-.19-.43-.43v-17.41c0-.24.19-.43.43-.43s.43.19.43.43v17.41c0,.24-.19.43-.43.43Z"/>
    <path class="cls-1" d="M4.34,34.18c-.24,0-.43-.19-.43-.43v-3.52c0-.24.19-.43.43-.43s.43.19.43.43v3.52c0,.24-.19.43-.43.43Z"/>
    <path class="cls-1" d="M2.37,33.15c-.24,0-.43-.19-.43-.43v-1.44c0-.24.19-.43.43-.43s.43.19.43.43v1.44c0,.24-.19.43-.43.43Z"/>
    <path class="cls-1" d="M.43,32.43c-.17,0-.34-.11-.4-.28-.08-.22.03-.47.25-.55l1.91-.7,1.91-1.01,1.92-1.57,1.94-2.16,1.95-3.08c.13-.2.39-.26.59-.13.2.13.26.39.13.59l-1.97,3.11s-.03.04-.04.06l-1.98,2.21s-.03.03-.05.05l-1.98,1.62s-.05.03-.07.05l-1.97,1.05s-.04.02-.05.02l-1.94.71s-.1.03-.15.03Z"/>
    <path class="cls-1" d="M10.27,41.13c-.14,0-.28-.07-.36-.2l-1.95-3.08-1.94-2.16-1.92-1.57-1.91-1.01-1.91-.7c-.22-.08-.33-.33-.25-.55s.33-.33.55-.25l1.94.71s.04.01.05.02l1.97,1.05s.05.03.07.05l1.98,1.62s.03.03.05.05l1.98,2.21s.03.04.04.06l1.97,3.11c.13.2.07.46-.13.59-.07.04-.15.07-.23.07Z"/>
    <path class="cls-1" d="M8.3,38.02c-.24,0-.43-.19-.43-.43v-11.19c0-.24.19-.43.43-.43s.43.19.43.43v11.19c0,.24-.19.43-.43.43Z"/>
    <path class="cls-1" d="M14.22,35.81c-.24,0-.43-.19-.43-.43v-6.76c0-.24.19-.43.43-.43s.43.19.43.43v6.76c0,.24-.19.43-.43.43Z"/>
    <circle class="cls-1" cx="20.11" cy="32" r=".43"/>
    <path class="cls-1" d="M16.2,34.18c-.24,0-.43-.19-.43-.43v-3.52c0-.24.19-.43.43-.43s.43.19.43.43v3.52c0,.24-.19.43-.43.43Z"/>
    <path class="cls-1" d="M18.17,33.15c-.24,0-.43-.19-.43-.43v-1.44c0-.24.19-.43.43-.43s.43.19.43.43v1.44c0,.24-.19.43-.43.43Z"/>
    <path class="cls-1" d="M12.24,38.02c-.24,0-.43-.19-.43-.43v-11.19c0-.24.19-.43.43-.43s.43.19.43.43v11.19c0,.24-.19.43-.43.43Z"/>
  </g>
  <g>
    <path class="cls-2" d="M25.26,36.36c-.17,0-.3-.05-.4-.16-.1-.11-.15-.23-.15-.39,0-.06.02-.15.06-.24l3.09-7.3c.06-.13.14-.24.26-.35.12-.1.26-.15.44-.15h.12c.19,0,.34.05.45.15.11.1.2.22.25.35l3.09,7.3c.04.1.06.18.06.24,0,.15-.05.28-.15.39-.1.11-.23.16-.4.16-.25,0-.42-.11-.52-.34l-.79-1.89h-4.12l-.79,1.89c-.1.23-.27.34-.52.34ZM26.99,33.13h3.27l-1.64-3.94-1.64,3.94Z"/>
    <path class="cls-2" d="M35.51,36.36c-.16,0-.31-.05-.44-.15-.13-.1-.22-.22-.27-.36l-1.72-5.04c-.02-.07-.04-.14-.04-.21,0-.15.05-.28.16-.39.11-.1.23-.16.39-.16.11,0,.22.03.31.08s.16.14.19.24l1.42,4.67,1.41-4.56c.04-.13.12-.23.22-.32.11-.08.23-.12.37-.12s.26.04.38.12c.11.08.19.19.22.32l1.41,4.56,1.42-4.67c.03-.1.1-.19.19-.24.1-.06.2-.08.3-.08.15,0,.28.05.39.16.1.11.16.23.16.39,0,.07-.01.13-.04.21l-1.72,5.04c-.05.14-.14.26-.27.36s-.27.15-.44.15-.31-.05-.44-.15-.22-.22-.28-.37l-1.29-4.01-1.29,4.01c-.06.15-.15.27-.28.37-.13.1-.28.15-.44.15Z"/>
    <path class="cls-2" d="M45.95,36.43c-.99,0-1.76-.28-2.31-.84-.55-.56-.83-1.35-.83-2.37,0-.55.1-1.07.3-1.56.2-.49.52-.89.95-1.19s.98-.46,1.65-.46c.62,0,1.15.14,1.58.43.43.29.75.66.98,1.12.22.46.33.96.33,1.5,0,.15-.05.28-.15.39-.1.11-.24.16-.41.16h-4.11c.06.54.27.98.62,1.3.35.33.85.49,1.5.49.36,0,.67-.03.92-.1.25-.07.49-.16.72-.27.06-.03.14-.05.22-.05.13,0,.24.04.34.13.1.09.15.2.15.34,0,.1-.03.18-.09.26s-.14.14-.22.19c-.27.15-.56.28-.87.38-.31.1-.73.15-1.25.15ZM43.93,32.7h3.58c-.02-.42-.13-.76-.32-1.02s-.42-.45-.69-.57c-.27-.12-.53-.18-.79-.18s-.52.06-.79.18c-.27.12-.49.31-.68.57-.19.26-.29.6-.32,1.02Z"/>
    <path class="cls-2" d="M52.05,36.43c-.44,0-.85-.05-1.21-.15-.36-.1-.69-.23-1-.4-.14-.1-.21-.23-.21-.4,0-.12.04-.23.13-.33.09-.1.2-.15.34-.15.07,0,.15.02.22.05.22.1.46.18.72.25.26.07.57.11.93.11.47,0,.81-.07,1.02-.22.21-.15.32-.36.32-.64,0-.18-.09-.32-.26-.41-.17-.1-.4-.18-.68-.25-.28-.07-.57-.14-.88-.22s-.6-.18-.88-.32c-.28-.13-.51-.31-.68-.55-.17-.23-.26-.53-.26-.89,0-.55.2-1.01.59-1.37.4-.36.99-.55,1.77-.55.33,0,.64.03.94.08s.57.13.82.22c.11.03.2.1.26.19s.09.18.09.27c0,.13-.05.24-.14.34-.09.1-.21.15-.35.15-.03,0-.06,0-.08,0s-.05-.01-.07-.02c-.19-.06-.41-.12-.64-.16-.23-.04-.48-.06-.75-.06-.44,0-.79.08-1.03.24s-.36.36-.36.61c0,.21.09.37.26.49.17.11.4.2.68.27.28.07.57.14.89.21.31.07.61.18.88.31s.5.32.68.55c.17.23.26.55.26.95,0,.49-.2.92-.59,1.27-.39.35-.98.53-1.75.53Z"/>
    <path class="cls-2" d="M56.39,28.86c-.17,0-.32-.06-.44-.18-.12-.12-.18-.27-.18-.44v-.05c0-.17.06-.32.18-.44.12-.12.27-.18.44-.18h.07c.17,0,.32.06.44.18.12.12.18.27.18.44v.05c0,.17-.06.31-.18.44-.12.12-.27.18-.44.18h-.07ZM56.41,36.36c-.15,0-.28-.05-.39-.16-.11-.11-.16-.23-.16-.39v-5.2c0-.16.05-.3.16-.4.1-.1.23-.16.39-.16.16,0,.3.05.4.16.1.11.16.24.16.4v5.2c0,.15-.05.28-.16.39-.11.11-.24.16-.4.16Z"/>
    <path class="cls-2" d="M61.75,36.43c-.57,0-1.11-.13-1.6-.38s-.89-.62-1.19-1.1c-.3-.48-.45-1.06-.45-1.73s.15-1.26.45-1.73c.3-.48.69-.84,1.19-1.1.49-.25,1.03-.38,1.6-.38.48,0,.87.06,1.19.19s.58.26.78.39c.16.11.24.25.24.42,0,.11-.04.22-.13.33s-.2.16-.33.16c-.09,0-.18-.02-.27-.07-.21-.11-.42-.21-.62-.28-.2-.07-.46-.11-.78-.11-.7,0-1.25.2-1.64.61-.39.4-.59.93-.59,1.58s.2,1.17.59,1.58c.39.4.94.61,1.64.61.32,0,.57-.04.78-.12.2-.08.41-.17.62-.27.09-.05.18-.07.27-.07.13,0,.24.05.33.16s.13.21.13.33c0,.18-.08.32-.24.42-.2.13-.46.26-.78.39-.32.13-.72.19-1.19.19Z"/>
  </g>
</svg>