<?xml version="1.0" encoding="UTF-8"?>
<svg id="Layer_1" xmlns="http://www.w3.org/2000/svg" viewBox="0 0 64 64">
  <defs>
    <style>
      .cls-1 {
        fill: #fff;
      }

      .cls-2 {
        fill: #f00c9d;
      }
    </style>
  </defs>
  <rect class="cls-2" width="64" height="64" rx="10" ry="10"/>
  <g>
    <path class="cls-1" d="M32.78,14.79c-.02-.05-.04-.1-.06-.14-.03-.05-.05-.09-.09-.13-.04-.04-.08-.08-.12-.12-.02-.02-.04-.04-.06-.06-.02-.01-.04-.01-.06-.02-.05-.03-.1-.04-.15-.06-.05-.02-.11-.03-.16-.03-.02,0-.04-.01-.06-.01-.03,0-.06.01-.09.02-.06,0-.11.02-.17.03-.05.02-.1.04-.14.06-.05.03-.09.05-.13.09-.04.04-.08.08-.12.12-.02.02-.04.04-.06.06l-3.8,6-3.77,4.21-3.74,3.07-3.72,1.98-3.73,1.36s-.01,0-.02.01c-.01,0-.02,0-.03.01-.05.02-.09.06-.13.09-.04.03-.08.04-.11.07,0,0-.01.01-.02.02-.03.03-.05.07-.08.11-.03.04-.07.08-.09.13,0,.01,0,.02-.01.03,0,0,0,.01-.01.02-.01.04,0,.08-.02.11-.01.05-.03.1-.03.15,0,0,0,.01,0,.02s0,.01,0,.02c0,.05.02.1.03.15,0,.04,0,.08.02.11,0,0,0,.01.01.02,0,.01,0,.02.01.03.01.02.03.04.04.07.03.05.06.11.1.15.01.01.02.03.03.04.01.01.03.02.05.04.05.04.1.07.15.1.02.01.04.03.07.04,0,0,.01,0,.02.01l3.63,1.33c.06.04.13.07.2.09l3.61,1.92,3.74,3.07,3.77,4.21,3.8,6s.03.03.05.05c.06.08.13.14.21.19.03.02.05.04.09.06.11.05.23.09.36.09h0s0,0,0,0c.1,0,.19-.02.29-.06.03-.01.05-.02.08-.04.03-.01.05-.02.08-.04.03-.02.04-.04.06-.06.04-.04.09-.07.12-.12.03-.04.06-.08.09-.13.03-.05.05-.09.06-.14.02-.05.03-.11.03-.17,0-.03.02-.06.02-.09V15.05s-.01-.06-.02-.09c0-.06-.02-.11-.03-.17ZM15.78,32.2l-.54-.2.54-.2v.39ZM17.44,31.11l2.18-1.16v4.09l-2.18-1.16v-1.77ZM21.28,28.97l2.19-1.8v9.66l-2.19-1.8v-6.07ZM25.13,25.73l2.2-2.46v17.46l-2.2-2.46v-12.54ZM29,21.34l2.17-3.43v28.18l-2.17-3.43v-21.32Z"/>
    <path class="cls-1" d="M39.7,24.59c-.46,0-.83.37-.83.83v13.17c0,.46.37.83.83.83s.83-.37.83-.83v-13.17c0-.46-.37-.83-.83-.83Z"/>
    <path class="cls-1" d="M51.17,31.17c-.46,0-.83.37-.83.83s.37.83.83.83.83-.37.83-.83-.37-.83-.83-.83Z"/>
    <path class="cls-1" d="M43.55,27.74c-.46,0-.83.37-.83.83v6.85c0,.46.37.83.83.83s.83-.37.83-.83v-6.85c0-.46-.37-.83-.83-.83Z"/>
    <path class="cls-1" d="M47.39,29.79c-.46,0-.83.37-.83.83v2.8c0,.46.37.83.83.83s.83-.37.83-.83v-2.8c0-.46-.37-.83-.83-.83Z"/>
    <path class="cls-1" d="M35.83,20.27c-.46,0-.83.37-.83.83v21.8c0,.46.37.83.83.83s.83-.37.83-.83v-21.8c0-.46-.37-.83-.83-.83Z"/>
  </g>
</svg>