<svg id="Layer_1" xmlns="http://www.w3.org/2000/svg" viewBox="0 0 64 64">
  <g>
    <path fill="#616161" d="M.9,62.45c-.28,0-.49-.09-.65-.26-.16-.17-.24-.38-.24-.63,0-.11.03-.24.1-.4l5.04-11.89c.09-.21.23-.4.42-.56.19-.17.43-.25.72-.25h.2c.3,0,.55.08.73.25.18.16.32.35.42.56l5.04,11.89c.07.16.1.29.1.4,0,.25-.08.46-.24.63-.16.17-.38.26-.65.26-.41,0-.69-.18-.85-.55l-1.28-3.08H3.03l-1.28,3.08c-.16.37-.44.55-.85.55ZM3.72,57.17h5.33l-2.67-6.42-2.67,6.42Z"/>
    <path fill="#616161" d="M17.61,62.45c-.26,0-.5-.08-.71-.25-.21-.16-.36-.36-.43-.58l-2.8-8.22c-.04-.12-.06-.23-.06-.34,0-.25.09-.46.26-.63.17-.17.38-.26.63-.26.18,0,.35.05.5.14s.25.22.31.39l2.31,7.6,2.29-7.43c.07-.21.19-.38.37-.51.18-.13.38-.2.6-.2s.43.07.61.2c.18.13.3.3.36.51l2.29,7.43,2.31-7.6c.05-.17.16-.3.32-.39.16-.09.32-.14.49-.14.25,0,.46.09.63.26.17.17.26.38.26.63,0,.11-.02.22-.06.34l-2.8,8.22c-.08.22-.22.42-.43.58s-.45.25-.71.25-.5-.08-.71-.25-.36-.37-.45-.6l-2.09-6.54-2.09,6.54c-.09.24-.24.44-.45.6-.21.16-.45.25-.71.25Z"/>
    <path fill="#616161" d="M34.61,62.55c-1.61,0-2.86-.46-3.76-1.37-.9-.91-1.35-2.2-1.35-3.86,0-.9.16-1.74.49-2.54.33-.8.84-1.44,1.54-1.95s1.59-.75,2.69-.75c1.01,0,1.87.23,2.57.7.7.47,1.23,1.08,1.59,1.83.36.75.54,1.57.54,2.45,0,.25-.08.46-.25.63-.16.17-.39.26-.66.26h-6.7c.11.88.44,1.59,1.01,2.12.57.53,1.38.8,2.45.8.59,0,1.09-.06,1.5-.17.41-.11.8-.26,1.17-.44.11-.05.22-.08.36-.08.21,0,.4.07.55.22.16.15.24.33.24.55,0,.16-.05.3-.15.43s-.22.23-.37.31c-.43.25-.91.46-1.41.62-.51.17-1.19.25-2.04.25ZM31.31,56.48h5.83c-.04-.68-.21-1.24-.52-1.66s-.68-.73-1.12-.93c-.43-.2-.86-.3-1.28-.3s-.85.1-1.28.3c-.43.2-.8.51-1.11.93-.3.42-.47.97-.51,1.66Z"/>
    <path fill="#616161" d="M44.55,62.55c-.72,0-1.38-.08-1.97-.24-.59-.16-1.13-.37-1.63-.65-.22-.16-.34-.37-.34-.65,0-.2.07-.38.22-.54.14-.16.33-.25.55-.25.12,0,.24.03.36.08.36.16.75.3,1.18.41.43.12.93.18,1.51.18.76,0,1.32-.12,1.67-.37.35-.24.52-.59.52-1.04,0-.29-.14-.51-.42-.67-.28-.16-.65-.29-1.11-.4-.45-.11-.93-.23-1.43-.36s-.98-.3-1.43-.51c-.45-.22-.82-.51-1.11-.89-.28-.38-.42-.86-.42-1.45,0-.9.32-1.64.97-2.23.65-.59,1.61-.89,2.88-.89.54,0,1.05.05,1.53.14s.92.21,1.33.36c.18.05.33.16.42.31s.15.3.15.44c0,.21-.08.39-.23.55-.15.16-.34.24-.56.24-.05,0-.1,0-.14-.01s-.08-.02-.12-.03c-.32-.11-.66-.19-1.04-.26-.38-.07-.78-.1-1.21-.1-.72,0-1.28.13-1.68.4s-.59.59-.59.99c0,.34.14.61.42.79.28.18.65.33,1.11.44.45.11.93.23,1.44.35.51.12.99.29,1.44.5s.82.52,1.11.9c.28.38.42.9.42,1.54,0,.8-.32,1.49-.96,2.06-.64.57-1.59.86-2.85.86Z"/>
    <path fill="#616161" d="M51.62,50.22c-.28,0-.51-.1-.71-.3-.2-.2-.3-.43-.3-.71v-.08c0-.28.1-.51.3-.71.2-.2.43-.3.71-.3h.12c.28,0,.51.1.71.3.2.2.3.43.3.71v.08c0,.28-.1.51-.3.71-.2.2-.43.3-.71.3h-.12ZM51.66,62.45c-.25,0-.46-.09-.63-.26-.17-.17-.26-.38-.26-.63v-8.47c0-.26.09-.48.26-.65.17-.17.38-.26.63-.26.26,0,.48.09.65.26.17.17.26.39.26.65v8.47c0,.25-.09.46-.26.63-.17.17-.39.26-.65.26Z"/>
    <path fill="#616161" d="M60.35,62.55c-.93,0-1.8-.21-2.61-.62s-1.45-1.01-1.94-1.8c-.49-.78-.73-1.72-.73-2.81s.24-2.05.73-2.83c.49-.78,1.13-1.37,1.94-1.79.8-.41,1.67-.62,2.61-.62.78,0,1.43.1,1.95.31s.94.42,1.27.64c.26.17.4.4.4.69,0,.18-.07.36-.22.53s-.32.26-.53.26c-.14,0-.29-.04-.43-.12-.34-.18-.68-.34-1.01-.45-.33-.12-.75-.18-1.26-.18-1.15,0-2.04.33-2.68.99-.64.66-.96,1.51-.96,2.57s.32,1.91.96,2.57c.64.66,1.53.99,2.68.99.51,0,.93-.06,1.26-.19.33-.13.66-.27,1.01-.44.14-.08.29-.12.43-.12.21,0,.39.09.53.26s.22.35.22.53c0,.29-.13.52-.4.69-.33.21-.75.42-1.27.63-.52.21-1.17.32-1.95.32Z"/>
  </g>
  <g>
    <path fill="#f00c9d" d="M23.16,30.35c-.53,0-.95-.43-.95-.95v-15.1c0-.53.43-.95.95-.95s.95.43.95.95v15.1c0,.53-.43.95-.95.95Z"/>
    <circle fill="#f00c9d" cx="10" cy="21.85" r=".95"/>
    <path fill="#f00c9d" d="M31.99,42.24c-.53,0-.95-.43-.95-.95V2.41c0-.53.43-.95.95-.95s.95.43.95.95v38.88c0,.53-.43.95-.95.95Z"/>
    <path fill="#f00c9d" d="M18.74,26.73c-.53,0-.95-.43-.95-.95v-7.86c0-.53.43-.95.95-.95s.95.43.95.95v7.86c0,.53-.43.95-.95.95Z"/>
    <path fill="#f00c9d" d="M14.34,24.42c-.53,0-.95-.43-.95-.95v-3.21c0-.53.43-.95.95-.95s.95.43.95.95v3.21c0,.53-.43.95-.95.95Z"/>
    <path fill="#f00c9d" d="M10,22.8c-.39,0-.75-.24-.89-.62-.18-.49.07-1.04.57-1.22l4.27-1.56,4.26-2.27,4.29-3.52,4.33-4.83,4.35-6.88c.28-.44.87-.58,1.31-.29.44.28.58.87.29,1.31l-4.4,6.94s-.06.09-.1.13l-4.43,4.95s-.07.07-.11.1l-4.42,3.62s-.1.08-.16.1l-4.4,2.34s-.08.04-.12.05l-4.33,1.59c-.11.04-.22.06-.33.06Z"/>
    <path fill="#f00c9d" d="M31.99,42.24c-.32,0-.62-.16-.8-.44l-4.35-6.88-4.33-4.83-4.29-3.52-4.26-2.27-4.27-1.56c-.49-.18-.75-.73-.57-1.22s.73-.75,1.22-.57l4.33,1.59s.08.03.12.05l4.4,2.34c.06.03.11.06.16.1l4.42,3.62s.07.06.11.1l4.43,4.95s.07.08.1.13l4.4,6.94c.28.44.15,1.03-.29,1.31-.16.1-.33.15-.51.15Z"/>
    <path fill="#f00c9d" d="M27.59,35.29c-.53,0-.95-.43-.95-.95V9.35c0-.53.43-.95.95-.95s.95.43.95.95v24.99c0,.53-.43.95-.95.95Z"/>
    <path fill="#f00c9d" d="M40.81,30.35c-.53,0-.95-.43-.95-.95v-15.1c0-.53.43-.95.95-.95s.95.43.95.95v15.1c0,.53-.43.95-.95.95Z"/>
    <circle fill="#f00c9d" cx="53.97" cy="21.85" r=".95"/>
    <path fill="#f00c9d" d="M45.23,26.73c-.53,0-.95-.43-.95-.95v-7.86c0-.53.43-.95.95-.95s.95.43.95.95v7.86c0,.53-.43.95-.95.95Z"/>
    <path fill="#f00c9d" d="M49.63,24.42c-.53,0-.95-.43-.95-.95v-3.21c0-.53.43-.95.95-.95s.95.43.95.95v3.21c0,.53-.43.95-.95.95Z"/>
    <path fill="#f00c9d" d="M36.38,35.29c-.53,0-.95-.43-.95-.95V9.35c0-.53.43-.95.95-.95s.95.43.95.95v24.99c0,.53-.43.95-.95.95Z"/>
  </g>
</svg>